<?xml version="1.0" encoding="UTF-8"?>
<svg xmlns="http://www.w3.org/2000/svg" onmouseup="{ if(window.parent.document.onmouseup) window.parent.document.onmouseup(arguments[0]);}" xml:space="preserve" style="enable-background:new 0 0 36 36;" viewBox="0 0 36 36" y="0px" x="0px" id="S_CheckmarkCircle_18_N_2x" version="1.1" xmlns:xlink="http://www.w3.org/1999/xlink"><style type="text/css">
	.st0{fill:#99B4A3;}
</style><path data-cppathid="10000" d="M18,2C9.2,2,2,9.2,2,18s7.2,16,16,16s16-7.2,16-16S26.8,2,18,2z M28.7,11.1L16,27.3c-0.2,0.3-0.5,0.4-0.9,0.5  c0,0,0,0-0.1,0c-0.3,0-0.6-0.1-0.8-0.4l-7.8-7.8C6,19.2,6,18.4,6.4,18c0,0,0,0,0,0l1.3-1.3c0.5-0.5,1.2-0.5,1.7,0c0,0,0,0,0,0  l5.3,5.3L25.3,8.5c0.4-0.5,1.2-0.6,1.7-0.2c0,0,0,0,0,0l1.5,1.1C29,9.8,29.1,10.6,28.7,11.1z" class="st0"/></svg>